<svg id="Capa_1" data-name="Capa 1" xmlns="http://www.w3.org/2000/svg" viewBox="0 0 249 207.1"><defs><style>.cls-1{fill:#f15a24;}.cls-2{fill:#ea714b;}.cls-3{fill:#212121;}</style></defs><polygon class="cls-1" points="0 41 13 37 13 155.34 112 182 112 4.27 125 0 125 207.1 0 165.2 0 41"/><polygon class="cls-2" points="13 37 26 33 26 145.48 100 160 100 8.5 112 4.27 112 182 13 155.34 13 37"/><polygon points="125 0 125 207.1 137 202 139 24 236 52 236 170.83 249 166 249 40.89 125 0"/><polygon class="cls-3" points="137 202 150 196.54 150 46.18 223 60 223 174.7 236 170.83 236 52 139 24 137 202"/><polygon points="162 67 162 85.97 213.17 85.97 213.17 72.59 162 67"/><polygon points="162 103.55 162 119.77 213.17 116.95 213.17 101.46 162 103.55"/><polygon points="162 138.43 162 157.45 213.17 147.94 213.17 132.45 162 138.43"/><polygon points="162 175.06 162 194.42 213.17 176.47 213.17 162.03 162 175.06"/></svg>